<?xml version="1.0"?>
<svg xmlns="http://www.w3.org/2000/svg" xmlns:xlink="http://www.w3.org/1999/xlink" xmlns:svgjs="http://svgjs.com/svgjs" version="1.1" width="512" height="512" x="0" y="0" viewBox="0 0 64 64" style="enable-background:new 0 0 512 512" xml:space="preserve" class=""><g>
<linearGradient xmlns="http://www.w3.org/2000/svg" id="SVGID_1_" gradientUnits="userSpaceOnUse" x1="32" y1="1" x2="32" y2="63" gradientTransform="matrix(1 0 0 -1 0 64)"><stop stop-opacity="1" stop-color="#f6bc31" offset="0"/><stop stop-opacity="1" stop-color="#e35624" offset="1"/></linearGradient>
<path xmlns="http://www.w3.org/2000/svg" style="fill:url(#SVGID_1_);" d="M36,21c0-1.103-0.897-2-2-2h-4c-2.206,0-4-1.794-4-4s1.794-4,4-4h1V9h2v2h1  c2.206,0,4,1.794,4,4h-2c0-1.103-0.897-2-2-2h-4c-1.103,0-2,0.897-2,2s0.897,2,2,2h4c2.206,0,4,1.794,4,4s-1.794,4-4,4h-1v2h-2v-2  h-1c-2.206,0-4-1.794-4-4h2c0,1.103,0.897,2,2,2h4C35.103,23,36,22.103,36,21z M57,51v2c1.103,0,2,0.897,2,2v2c0,1.103-0.897,2-2,2  v2c0,1.103-0.897,2-2,2H36c-1.103,0-2-0.897-2-2v-2c0-1.103,0.897-2,2-2v-2c-1.103,0-2-0.897-2-2v-2c0-1.103,0.897-2,2-2h19  C56.103,49,57,49.897,57,51z M55,59H38h-2v2h19.001L55,59z M57,55h-2H38v2h17h2.001L57,55z M55.001,53L55,51H36v2h2H55.001z M36,39  v2c0,1.103-0.897,2-2,2h-2v2c0,1.103-0.897,2-2,2h-2v2c1.103,0,2,0.897,2,2v2c1.103,0,2,0.897,2,2v2c0,1.103-0.897,2-2,2v2  c0,1.103-0.897,2-2,2H9c-1.103,0-2-0.897-2-2v-2c0-1.103,0.897-2,2-2v-2c-1.103,0-2-0.897-2-2v-2c-1.103,0-2-0.897-2-2v-2  c0-1.103,0.897-2,2-2h2v-2c0-1.103,0.897-2,2-2h2v-2c0-1.103,0.897-2,2-2h19C35.103,37,36,37.897,36,39z M28,59H11H9v2h19.001L28,59  z M30,55h-2H11v2h17h2.001L30,55z M28,51h-2H9v2h2h17.001L28,51z M26,47H11H7v2h2h17.001L26,47z M30,43H15h-4v2h15h4.001L30,43z   M34.001,41L34,39H15v2h15H34.001z M1,1h62v34H1V1z M3,33h3.899C6.5,31.044,4.956,29.5,3,29.101V33z M3,8.92v18.16  c3.059,0.441,5.48,2.861,5.92,5.92h46.16c0.441-3.059,2.861-5.48,5.92-5.92V8.92C57.941,8.479,55.52,6.059,55.08,3H8.92  C8.48,6.059,6.059,8.48,3,8.92z M61,33v-3.899C59.044,29.5,57.5,31.044,57.101,33C57.101,33,61,33,61,33z M61,3h-3.899  C57.5,4.956,59.044,6.5,61,6.899V3z M3,3v3.899C4.956,6.5,6.5,4.956,6.899,3H3z M19,18c0-7.168,5.832-13,13-13s13,5.832,13,13  s-5.832,13-13,13S19,25.168,19,18z M21,18c0,6.065,4.935,11,11,11s11-4.935,11-11S38.065,7,32,7S21,11.935,21,18z" fill=""/>
</g></svg>
