<svg height="480pt" viewBox="0 0 480 480" width="480pt" xmlns="http://www.w3.org/2000/svg" xmlns:xlink="http://www.w3.org/1999/xlink"><linearGradient id="a"><stop offset="0" stop-color="#e93e3a"/><stop offset=".35" stop-color="#ed683c"/><stop offset=".7" stop-color="#f3903f"/><stop offset="1" stop-color="#fdc70c"/></linearGradient><linearGradient id="b" gradientUnits="userSpaceOnUse" x1="240.528" x2="239.496" xlink:href="#a" y1="496.774292" y2="-7.585708"/><linearGradient id="c" gradientUnits="userSpaceOnUse" x1="240.592" x2="239.56" xlink:href="#a" y1="496.774292" y2="-7.585708"/><linearGradient id="d" gradientUnits="userSpaceOnUse" x1="116.6" x2="115.568" xlink:href="#a" y1="497.030292" y2="-7.329708"/><linearGradient id="e" gradientUnits="userSpaceOnUse" x1="364.616" x2="363.584" xlink:href="#a" y1="496.518292" y2="-7.841708"/><linearGradient id="f" gradientUnits="userSpaceOnUse" x1="116.432" x2="115.408" xlink:href="#a" y1="497.030292" y2="-7.329708"/><linearGradient id="g" gradientUnits="userSpaceOnUse" x1="364.448" x2="363.424" xlink:href="#a" y1="496.526292" y2="-7.841708"/><linearGradient id="h" gradientUnits="userSpaceOnUse" x1="320.52" x2="319.496" xlink:href="#a" y1="496.614292" y2="-7.745708"/><linearGradient id="i" gradientUnits="userSpaceOnUse" x1="160.528" x2="159.496" xlink:href="#a" y1="496.942292" y2="-7.425708"/><linearGradient id="j" gradientUnits="userSpaceOnUse" x1="240.216" x2="239.184" xlink:href="#a" y1="496.774292" y2="-7.585708"/><linearGradient id="k" gradientUnits="userSpaceOnUse" x1="240.048" x2="239.024" xlink:href="#a" y1="496.774292" y2="-7.585708"/><linearGradient id="l" gradientUnits="userSpaceOnUse" x1="240.96" x2="239.928" xlink:href="#a" y1="496.774292" y2="-7.585708"/><linearGradient id="m" gradientUnits="userSpaceOnUse" x1="32.88" x2="31.848" xlink:href="#a" y1="497.198292" y2="-7.161708"/><linearGradient id="n" gradientUnits="userSpaceOnUse" x1="32.592" x2="31.56" xlink:href="#a" y1="497.198292" y2="-7.161708"/><linearGradient id="o" gradientUnits="userSpaceOnUse" x1="32.528" x2="31.496" xlink:href="#a" y1="497.198292" y2="-7.161708"/><linearGradient id="p" gradientUnits="userSpaceOnUse" x1="32.456" x2="31.432" xlink:href="#a" y1="497.198292" y2="-7.161708"/><linearGradient id="q" gradientUnits="userSpaceOnUse" x1="448.88" x2="447.848" xlink:href="#a" y1="496.350292" y2="-8.009708"/><linearGradient id="r" gradientUnits="userSpaceOnUse" x1="448.592" x2="447.56" xlink:href="#a" y1="496.350292" y2="-8.009708"/><linearGradient id="s" gradientUnits="userSpaceOnUse" x1="448.52" x2="447.496" xlink:href="#a" y1="496.350292" y2="-8.009708"/><linearGradient id="t" gradientUnits="userSpaceOnUse" x1="448.456" x2="447.432" xlink:href="#a" y1="496.350292" y2="-8.009708"/><path d="m240 184c-30.929688 0-56 25.070312-56 56 0 30.925781 25.070312 56 56 56s56-25.074219 56-56c-.035156-30.914062-25.085938-55.964844-56-56zm0 96c-22.089844 0-40-17.910156-40-40 0-22.09375 17.910156-40 40-40s40 17.90625 40 40c-.027344 22.078125-17.917969 39.972656-40 40zm0 0" fill="url(#b)"/><path d="m56 312c0 13.253906 10.746094 24 24 24h320c13.253906 0 24-10.746094 24-24v-208c0-13.257812-10.746094-24-24-24h-320c-13.253906 0-24 10.742188-24 24zm352 0c0 4.417969-3.582031 8-8 8h-320c-4.417969 0-8-3.582031-8-8v-144c0-4.421875 3.582031-8 8-8h320c4.417969 0 8 3.578125 8 8zm0-166.53125c-2.5625-.945312-5.269531-1.445312-8-1.46875h-320c-2.730469.023438-5.4375.523438-8 1.46875v-9.46875c0-4.421875 3.582031-8 8-8h320c4.417969 0 8 3.578125 8 8zm-328-49.46875h320c4.417969 0 8 3.578125 8 8v9.46875c-2.5625-.945312-5.269531-1.445312-8-1.46875h-320c-2.730469.023438-5.4375.523438-8 1.46875v-9.46875c0-4.421875 3.582031-8 8-8zm0 0" fill="url(#c)"/><path d="m96 192v32h16v-24h24v-16h-32c-4.417969 0-8 3.578125-8 8zm0 0" fill="url(#d)"/><path d="m376 184h-32v16h24v24h16v-32c0-4.421875-3.582031-8-8-8zm0 0" fill="url(#e)"/><path d="m112 256h-16v32c0 4.417969 3.582031 8 8 8h32v-16h-24zm0 0" fill="url(#f)"/><path d="m368 280h-24v16h32c4.417969 0 8-3.582031 8-8v-32h-16zm0 0" fill="url(#g)"/><path d="m312 232h16v16h-16zm0 0" fill="url(#h)"/><path d="m152 232h16v16h-16zm0 0" fill="url(#i)"/><path d="m232 384h16v16h-16zm0 0" fill="url(#j)"/><path d="m435.679688 464c12.683593-14.074219 15.882812-34.300781 8.167968-51.601562-7.71875-17.300782-24.902344-28.433594-43.847656-28.398438-.902344 0-1.816406 0-2.710938.078125-7.753906-22.078125-30.296874-35.347656-53.363281-31.410156-23.066406 3.9375-39.933593 23.929687-39.925781 47.332031h16c.046875-16.539062 12.6875-30.320312 29.160156-31.785156 16.472656-1.46875 31.351563 9.859375 34.320313 26.128906.382812 2.15625 1.632812 4.0625 3.460937 5.273438 1.828125 1.210937 4.074219 1.617187 6.210938 1.125 2.246094-.503907 4.542968-.753907 6.847656-.742188 17.671875 0 32 14.324219 32 32 0 17.671875-14.328125 32-32 32h-320c-17.671875 0-32-14.328125-32-32 0-17.675781 14.328125-32 32-32 2.304688-.007812 4.601562.246094 6.847656.757812 2.136719.492188 4.382813.085938 6.210938-1.125 1.828125-1.207031 3.078125-3.117187 3.460937-5.273437 2.96875-16.269531 17.84375-27.59375 34.3125-26.132813 16.472657 1.464844 29.113281 15.234376 29.167969 31.773438h16c.007812-23.402344-16.859375-43.394531-39.925781-47.332031-23.066407-3.9375-45.609375 9.332031-53.363281 31.410156-.894532-.078125-1.808594-.078125-2.710938-.078125-18.945312-.035156-36.128906 11.097656-43.847656 28.398438-7.714844 17.300781-4.515625 37.527343 8.167968 51.601562h-44.320312v16h480v-16zm0 0" fill="url(#k)"/><path d="m200 392c0 20.09375 28.734375 48.34375 34.496094 53.804688 3.085937 2.925781 7.921875 2.925781 11.007812 0 5.761719-5.460938 34.496094-33.710938 34.496094-53.804688 0-22.09375-17.910156-40-40-40s-40 17.90625-40 40zm64 0c0 8.390625-12.671875 24.847656-24 36.695312-11.335938-11.839843-24-28.289062-24-36.695312 0-13.257812 10.746094-24 24-24s24 10.742188 24 24zm0 0" fill="url(#j)"/><path d="m232 27.308594v36.691406h16v-36.691406l10.34375 10.34375 11.3125-11.308594-24-24c-3.125-3.125-8.1875-3.125-11.3125 0l-24 24 11.3125 11.308594zm0 0" fill="url(#l)"/><path d="m24 67.308594v116.691406h16v-116.691406l10.34375 10.34375 11.3125-11.308594-24-24c-3.125-3.125-8.1875-3.125-11.3125 0l-24 24 11.3125 11.308594zm0 0" fill="url(#m)"/><path d="m24 200h16v16h-16zm0 0" fill="url(#n)"/><path d="m24 232h16v16h-16zm0 0" fill="url(#o)"/><path d="m24 264h16v16h-16zm0 0" fill="url(#p)"/><path d="m440 67.308594v116.691406h16v-116.691406l10.34375 10.34375 11.3125-11.308594-24-24c-3.125-3.125-8.1875-3.125-11.3125 0l-24 24 11.3125 11.308594zm0 0" fill="url(#q)"/><path d="m440 200h16v16h-16zm0 0" fill="url(#r)"/><path d="m440 232h16v16h-16zm0 0" fill="url(#s)"/><path d="m440 264h16v16h-16zm0 0" fill="url(#t)"/></svg>