<svg height="480pt" viewBox="-8 0 480 480" width="480pt" xmlns="http://www.w3.org/2000/svg" xmlns:xlink="http://www.w3.org/1999/xlink"><linearGradient id="a"><stop offset="0" stop-color="#e93e3a"/><stop offset=".35" stop-color="#ed683c"/><stop offset=".7" stop-color="#f3903f"/><stop offset="1" stop-color="#fdc70c"/></linearGradient><linearGradient id="b" gradientUnits="userSpaceOnUse" x1="176.128" x2="175.104" xlink:href="#a" y1="494.808" y2="-14.696"/><linearGradient id="c" gradientUnits="userSpaceOnUse" x1="344.832" x2="343.8" xlink:href="#a" y1="494.464" y2="-15.04"/><linearGradient id="d" gradientUnits="userSpaceOnUse" x1="344.864" x2="343.832" xlink:href="#a" y1="494.464" y2="-15.04"/><linearGradient id="e" gradientUnits="userSpaceOnUse" x1="80.784" x2="79.752" xlink:href="#a" y1="495" y2="-14.504"/><linearGradient id="f" gradientUnits="userSpaceOnUse" x1="160.92" x2="159.888" xlink:href="#a" y1="494.84" y2="-14.672"/><linearGradient id="g" gradientUnits="userSpaceOnUse" x1="408.576" x2="407.552" xlink:href="#a" y1="494.336" y2="-15.168"/><linearGradient id="h" gradientUnits="userSpaceOnUse" x1="352.208" x2="351.176" xlink:href="#a" y1="494.456" y2="-15.056"/><linearGradient id="i" gradientUnits="userSpaceOnUse" x1="24.544" x2="23.52" xlink:href="#a" y1="495.112" y2="-14.392"/><linearGradient id="j" gradientUnits="userSpaceOnUse" x1="336.432" x2="335.4" xlink:href="#a" y1="494.488" y2="-15.024"/><path d="m254.742188 334.601562-46.742188-12.714843v-12c15.027344-10.445313 23.988281-27.585938 24-45.886719v-8c4.417969 0 8-3.582031 8-8v-24c0-35.347656-28.652344-64-64-64s-64 28.652344-64 64v24c0 4.417969 3.582031 8 8 8v8c.011719 18.300781 8.976562 35.4375 24 45.886719v12l-46.769531 12.722656c-24.300781 6.726563-41.15625 28.8125-41.230469 54.03125v83.359375c0 4.417969 3.582031 8 8 8h224c4.417969 0 8-3.582031 8-8v-83.359375c-.078125-25.226563-16.941406-47.316406-41.257812-54.039063zm-126.742188-110.601562c0-26.507812 21.492188-48 48-48s48 21.492188 48 48v16h-5.257812c-7.347657.011719-13.761719-4.988281-15.542969-12.121094l-3.445313-13.816406c-.75-2.992188-3.152344-5.289062-6.179687-5.902344-.515625-.109375-1.042969-.160156-1.574219-.160156-2.519531 0-4.890625 1.1875-6.398438 3.199219l-4.800781 6.402343c-10.605469 14.0625-27.183593 22.351563-44.800781 22.398438h-8zm8 40v-8c19.726562-.042969 38.578125-8.132812 52.199219-22.398438 3.902343 12.351563 14.890625 21.117188 27.800781 22.175782v8.222656c0 22.089844-17.910156 40-40 40s-40-17.910156-40-40zm40 56c5.421875-.015625 10.8125-.824219 16-2.398438v10.398438c.027344 2.292969 1.042969 4.460938 2.792969 5.945312l-18.792969 15.65625-18.792969-15.648437c1.75-1.484375 2.769531-3.65625 2.792969-5.953125v-10.398438c5.1875 1.574219 10.578125 2.382813 16 2.398438zm104 144h-24v-72h-16v72h-128v-72h-16v72h-24v-75.359375c.058594-18.015625 12.101562-33.792969 29.464844-38.601563l37.734375-10.261718 31.679687 26.398437c2.96875 2.472657 7.273438 2.472657 10.242188 0l31.679687-26.398437 37.710938 10.253906c17.371093 4.804688 29.421875 20.585938 29.488281 38.609375zm0 0" fill="url(#b)"/><path d="m440 0h-192c-13.253906 0-24 10.746094-24 24v120c0 13.253906 10.746094 24 24 24h16v32c0 3.234375 1.949219 6.152344 4.9375 7.390625s6.429688.550781 8.71875-1.734375l37.65625-37.65625h124.6875c13.253906 0 24-10.746094 24-24v-120c0-13.253906-10.746094-24-24-24zm8 144c0 4.417969-3.582031 8-8 8h-128c-2.121094 0-4.15625.84375-5.65625 2.34375l-26.34375 26.34375v-20.6875c0-4.417969-3.582031-8-8-8h-24c-4.417969 0-8-3.582031-8-8v-120c0-4.417969 3.582031-8 8-8h192c4.417969 0 8 3.582031 8 8zm0 0" fill="url(#c)"/><path d="m367.199219 34.71875c-8.488281-.015625-16.632813 3.363281-22.613281 9.386719l-.585938.582031-.585938-.589844c-5.984374-6.019531-14.125-9.394531-22.613281-9.378906-8.480469.03125-16.609375 3.402344-22.617187 9.386719-12.480469 12.492187-12.480469 32.738281 0 45.230469l40.160156 40.160156c3.125 3.121094 8.1875 3.121094 11.3125 0l40.160156-40.160156c12.480469-12.492188 12.480469-32.738282 0-45.230469-6.007812-5.984375-14.136718-9.355469-22.617187-9.386719zm11.296875 43.296875-34.496094 34.511719-34.496094-34.511719c-6.230468-6.246094-6.230468-16.355469 0-22.601563 3-2.988281 7.058594-4.675781 11.296875-4.695312 4.242188-.007812 8.3125 1.683594 11.304688 4.695312l6.238281 6.242188c3.125 3.121094 8.1875 3.121094 11.3125 0l6.238281-6.242188c6.335938-6.011718 16.269531-6.011718 22.601563 0 6.230468 6.246094 6.230468 16.355469 0 22.601563zm0 0" fill="url(#d)"/><path d="m74.34375 169.496094c3.125 3.121094 8.1875 3.121094 11.3125 0l40.160156-40.160156c12.480469-12.492188 12.480469-32.738282 0-45.230469-6.007812-5.984375-14.136718-9.355469-22.617187-9.386719-8.488281-.015625-16.632813 3.363281-22.613281 9.386719l-.585938.582031-.585938-.589844c-5.984374-6.019531-14.125-9.394531-22.613281-9.378906-8.480469.03125-16.609375 3.402344-22.617187 9.386719-12.480469 12.492187-12.480469 32.738281 0 45.230469zm-28.800781-74.082032c2.992187-2.980468 7.035156-4.667968 11.257812-4.695312 4.242188-.007812 8.3125 1.683594 11.304688 4.695312l6.238281 6.242188c3.125 3.121094 8.1875 3.121094 11.3125 0l6.238281-6.242188c6.335938-6.011718 16.269531-6.011718 22.601563 0 6.230468 6.246094 6.230468 16.355469 0 22.601563l-34.496094 34.511719-34.496094-34.511719c-6.230468-6.246094-6.230468-16.355469 0-22.601563zm0 0" fill="url(#e)"/><path d="m152 64h16v-16h16v-16h-16v-16h-16v16h-16v16h16zm0 0" fill="url(#f)"/><path d="m416 184h-16v16h-16v16h16v16h16v-16h16v-16h-16zm0 0" fill="url(#g)"/><path d="m360 368h-16v16h-16v16h16v16h16v-16h16v-16h-16zm0 0" fill="url(#h)"/><path d="m32 200h-16v16h-16v16h16v16h16v-16h16v-16h-16zm0 0" fill="url(#i)"/><path d="m360 280c0-13.253906-10.746094-24-24-24s-24 10.746094-24 24 10.746094 24 24 24 24-10.746094 24-24zm-32 0c0-4.417969 3.582031-8 8-8s8 3.582031 8 8-3.582031 8-8 8-8-3.582031-8-8zm0 0" fill="url(#j)"/></svg>