<?xml version="1.0"?>
<svg xmlns="http://www.w3.org/2000/svg" xmlns:xlink="http://www.w3.org/1999/xlink" xmlns:svgjs="http://svgjs.com/svgjs" version="1.1" width="512" height="512" x="0" y="0" viewBox="0 0 496 496" style="enable-background:new 0 0 512 512" xml:space="preserve" class=""><g><linearGradient xmlns="http://www.w3.org/2000/svg" id="a" gradientUnits="userSpaceOnUse" x1="248" x2="248" y1="496" y2="0"><stop stop-opacity="1" stop-color="#f6bc31" offset="0"/><stop stop-opacity="1" stop-color="#e35624" offset="1"/></linearGradient><path xmlns="http://www.w3.org/2000/svg" d="m456 0h-128c-22.054688 0-40 17.945312-40 40v104h-248c-22.054688 0-40 17.945312-40 40v224c0 22.054688 17.945312 40 40 40h104v32h-32v16h208v-16h-32v-32h104c22.054688 0 40-17.945312 40-40v-40h24c22.054688 0 40-17.945312 40-40v-288c0-22.054688-17.945312-40-40-40zm-128 16h128c13.230469 0 24 10.769531 24 24v8h-176v-8c0-13.230469 10.769531-24 24-24zm-40 240h-240v-64h240zm192-192v224h-176v-224zm-208 416h-112v-32h112zm120-48h-352c-13.230469 0-24-10.769531-24-24v-8h400v8c0 13.230469-10.769531 24-24 24zm24-48h-400v-200c0-13.230469 10.769531-24 24-24h248v16h-256v96h256v56c0 22.054688 17.945312 40 40 40h88zm40-32h-128c-13.230469 0-24-10.769531-24-24v-24h176v24c0 13.230469-10.769531 24-24 24zm-88-32h48v16h-48zm96-240h-144v96h144zm-16 80h-112v-64h112zm0 96h16v16h-16zm-128 16v-16h112v16zm144-32h-144v-16h144zm0-32h-144v-16h144zm-432 160h112v-80h-112zm16-64h80v48h-80zm112-16h112v16h-112zm0 32h112v16h-112zm0 32h80v16h-80zm96 0h16v16h-16zm0 0" fill="url(#a)" data-original="url(#a)" style="" class=""/></g></svg>
