<?xml version="1.0"?>
<svg xmlns="http://www.w3.org/2000/svg" xmlns:xlink="http://www.w3.org/1999/xlink" xmlns:svgjs="http://svgjs.com/svgjs" version="1.1" width="512" height="512" x="0" y="0" viewBox="0 0 486 486.24" style="enable-background:new 0 0 512 512" xml:space="preserve" class=""><g><linearGradient xmlns="http://www.w3.org/2000/svg" id="a"><stop stop-opacity="1" stop-color="#f6bc31" offset="0"/><stop stop-opacity="1" stop-color="#f6bc31" offset="0"/><stop stop-opacity="1" stop-color="#e35624" offset="1"/></linearGradient><linearGradient xmlns="http://www.w3.org/2000/svg" xmlns:xlink="http://www.w3.org/1999/xlink" id="b" gradientUnits="userSpaceOnUse" x1="104.965321" x2="104.965321" xlink:href="#a" y1="495.744003" y2="-9.647997"/><linearGradient xmlns="http://www.w3.org/2000/svg" xmlns:xlink="http://www.w3.org/1999/xlink" id="c" gradientUnits="userSpaceOnUse" x1="378.549321" x2="378.549321" xlink:href="#a" y1="495.744003" y2="-9.647997"/><linearGradient xmlns="http://www.w3.org/2000/svg" xmlns:xlink="http://www.w3.org/1999/xlink" id="d" gradientUnits="userSpaceOnUse" x1="241.757321" x2="241.757321" xlink:href="#a" y1="495.744003" y2="-9.647997"/><linearGradient xmlns="http://www.w3.org/2000/svg" xmlns:xlink="http://www.w3.org/1999/xlink" id="e" gradientUnits="userSpaceOnUse" x1="153.757321" x2="153.757321" xlink:href="#a" y1="495.744003" y2="-9.647997"/><linearGradient xmlns="http://www.w3.org/2000/svg" xmlns:xlink="http://www.w3.org/1999/xlink" id="f" gradientUnits="userSpaceOnUse" x1="329.757321" x2="329.757321" xlink:href="#a" y1="495.744003" y2="-9.647997"/><linearGradient xmlns="http://www.w3.org/2000/svg" xmlns:xlink="http://www.w3.org/1999/xlink" id="g" gradientUnits="userSpaceOnUse" x1="345.757321" x2="345.757321" xlink:href="#a" y1="495.744003" y2="-9.647997"/><linearGradient xmlns="http://www.w3.org/2000/svg" xmlns:xlink="http://www.w3.org/1999/xlink" id="h" gradientUnits="userSpaceOnUse" x1="377.757321" x2="377.757321" xlink:href="#a" y1="495.744003" y2="-9.647997"/><linearGradient xmlns="http://www.w3.org/2000/svg" xmlns:xlink="http://www.w3.org/1999/xlink" id="i" gradientUnits="userSpaceOnUse" x1="137.757321" x2="137.757321" xlink:href="#a" y1="495.744003" y2="-9.647997"/><linearGradient xmlns="http://www.w3.org/2000/svg" xmlns:xlink="http://www.w3.org/1999/xlink" id="j" gradientUnits="userSpaceOnUse" x1="105.757321" x2="105.757321" xlink:href="#a" y1="495.744003" y2="-9.647997"/><path xmlns="http://www.w3.org/2000/svg" d="m189.253906 385.097656-7.878906 1.382813-9.648438-54.753907c-.246093-1.371093-.847656-2.65625-1.746093-3.726562l-10.085938-12.046875-12.273437 10.261719 8.710937 10.402344 9.289063 52.648437-63.015625 11.101563-15.769531 2.785156-1.390626-7.878906c-.320312-1.789063-1.234374-3.414063-2.59375-4.617188l-36.351562-32-30.078125-170.558594c-1.410156-8.644531 4.390625-16.8125 13.015625-18.332031 8.621094-1.519531 16.867188 4.175781 18.496094 12.777344l9.601562 54.402343c-1.269531.757813-2.484375 1.597657-3.640625 2.519532-13.488281 11.386718-15.25 31.523437-3.945312 45.078125l58.792969 70.058593 12.253906-10.28125-58.78125-70.039062c-5.632813-6.765625-4.765625-16.804688 1.941406-22.503906 1.417969-1.203125 3.042969-2.132813 4.800781-2.738282.273438-.085937.535157-.191406.800781-.304687.644532-.234375 1.308594-.40625 1.984376-.511719 5.636718-1.023437 11.390624 1.066406 15.054687 5.472656l12.871094 15.335938 12.257812-10.289062-12.871093-15.335938c-6.460938-7.644531-16.109376-11.847656-26.105469-11.367188l-9.257813-52.253906c-1.871094-11.363281-9.707031-20.84375-20.515625-24.824218-10.808593-3.976563-22.917969-1.839844-31.714843 5.59375-8.796876 7.433593-12.917969 19.023437-10.792969 30.339843l30.5625 173.320313c.3125 1.789062 1.226562 3.417968 2.589843 4.617187l36.351563 32 .90625 5.113281-7.878906 1.390626c-4.355469.769531-7.261719 4.917968-6.488281 9.273437l11.109374 63.023437c.675782 3.820313 3.992188 6.605469 7.871094 6.605469.472656 0 .9375-.039062 1.402344-.117187l126.054688-22.226563c4.355468-.765625 7.257812-4.917969 6.488281-9.269531l-11.078125-63.039062c-.371094-2.097657-1.558594-3.960938-3.304688-5.179688s-3.90625-1.6875-6-1.308594zm-107.066406 83.863282-8.328125-47.273438 110.296875-19.449219 8.328125 47.273438zm0 0" fill="url(#b)" data-original="url(#b)" style=""/><path xmlns="http://www.w3.org/2000/svg" d="m477.558594 166.976562c-7.421875-10.609374-20.507813-15.699218-33.148438-12.898437-12.640625 2.804687-22.34375 12.945313-24.589844 25.699219l-9.214843 52.261718c-9.996094-.480468-19.648438 3.722657-26.105469 11.367188l-12.871094 15.335938 12.257813 10.289062 12.871093-15.335938c3.65625-4.40625 9.40625-6.5 15.039063-5.472656.683594.105469 1.351563.277344 2 .511719.257813.113281.519531.21875.800781.304687 1.722656.589844 3.324219 1.492188 4.71875 2.664063 6.761719 5.695313 7.648438 15.777344 1.992188 22.570313l-58.75 70.054687 12.253906 10.28125 58.792969-70.058594c6.136719-7.003906 8.84375-16.378906 7.378906-25.574219-1.464844-9.199218-6.945313-17.269531-14.953125-22.023437l9.597656-54.402344c1.546875-8.699219 9.855469-14.5 18.554688-12.953125 8.703125 1.542969 14.503906 9.851563 12.957031 18.554688l-30.078125 170.558594-36.351562 32c-1.359376 1.203124-2.273438 2.832031-2.59375 4.617187l-1.390626 7.878906-15.769531-2.78125-63.015625-11.105469 9.289063-52.648437 8.710937-10.398437-12.273437-10.265626-10.132813 11.992188c-.902344 1.074219-1.503906 2.363281-1.746094 3.742188l-9.648437 54.738281-7.878906-1.382813c-4.351563-.773437-8.503907 2.132813-9.273438 6.488282l-11.109375 63.023437c-.773437 4.351563 2.132813 8.503906 6.488282 9.269531l126.054687 22.226563c.460937.078125.929687.117187 1.398437.117187 3.878907 0 7.199219-2.785156 7.871094-6.605468l11.113282-63.023438c.769531-4.355469-2.132813-8.507812-6.488282-9.273438l-7.878906-1.390624.902344-5.113282 36.351562-32c1.363282-1.199218 2.277344-2.828125 2.59375-4.617187l30.558594-173.320313c1.5-8.351562-.402344-16.960937-5.285156-23.902344zm-76.234375 301.984376-110.292969-19.449219 8.324219-47.273438 110.296875 19.449219zm0 0" fill="url(#c)" data-original="url(#c)" style=""/><g xmlns="http://www.w3.org/2000/svg" fill="url(#d)"><path d="m169.757812 192h34.230469l6.175781 18.527344c1.089844 3.269531 4.148438 5.472656 7.59375 5.472656h48c3.445313 0 6.503907-2.203125 7.589844-5.472656l6.175782-18.527344h34.234374c2.464844 0 4.789063-1.136719 6.304688-3.078125s2.054688-4.476563 1.453125-6.867187l-16-64c-.890625-3.558594-4.089844-6.054688-7.757813-6.054688h-8v-63.144531c0-2.09375-.820312-4.105469-2.289062-5.597657l-40-40.867187c-1.503906-1.53125-3.5625-2.390625-5.710938-2.390625-2.113281.105469-4.125.933594-5.695312 2.351562l-40 40.136719c-1.484375 1.503907-2.3125 3.535157-2.304688 5.648438v63.863281h-8c-3.671874 0-6.867187 2.496094-7.761718 6.054688l-16 64c-.597656 2.390624-.0625 4.925781 1.453125 6.867187s3.84375 3.078125 6.308593 3.078125zm121.75-64 12 48h-13.75v-48zm-31.519531 72h-36.464843l-2.671876-8h41.808594zm-50.230469-148.558594 31.953126-32.058594 32.046874 32.746094v123.871094h-24v-64h-16v64h-24zm-17.753906 76.558594h1.753906v48h-13.753906zm0 0" fill=""/><path d="m241.757812 88c13.253907 0 24-10.746094 24-24s-10.746093-24-24-24c-13.253906 0-24 10.746094-24 24s10.746094 24 24 24zm0-32c4.417969 0 8 3.582031 8 8s-3.582031 8-8 8c-4.417968 0-8-3.582031-8-8s3.582032-8 8-8zm0 0" fill=""/><path d="m241.757812 232c-17.671874 0-32 14.328125-32 32 0 15.527344 21.695313 40.496094 26.046876 45.34375 1.519531 1.691406 3.683593 2.65625 5.953124 2.65625 2.269532 0 4.433594-.964844 5.953126-2.65625 4.351562-4.847656 26.046874-29.816406 26.046874-45.34375 0-17.671875-14.328124-32-32-32zm0 59.609375c-8.496093-10.65625-16-22.648437-16-27.609375 0-8.835938 7.164063-16 16-16 8.835938 0 16 7.164062 16 16 0 5.097656-7.511718 17-16 27.609375zm0 0" fill=""/></g><path xmlns="http://www.w3.org/2000/svg" d="m137.757812 328v-16c-8.835937 0-16-7.164062-16-16s7.164063-16 16-16c1.769532-.023438 3.523438.28125 5.183594.894531 2.703125 1.003907 5.738282.492188 7.964844-1.339843 2.226562-1.832032 3.3125-4.707032 2.851562-7.554688 0-8.835938 7.164063-16 16-16 8.835938 0 16 7.164062 16 16h16c.015626-16.125-11.972656-29.746094-27.96875-31.777344-15.996093-2.03125-31.007812 8.160156-35.023437 23.777344-17.671875-.277344-32.226563 13.824219-32.503906 31.496094-.277344 17.671875 13.824219 32.226562 31.496093 32.503906zm0 0" fill="url(#e)" data-original="url(#e)" style=""/><path xmlns="http://www.w3.org/2000/svg" d="m281.757812 272h16c.042969-8.835938 7.242188-15.964844 16.078126-15.921875 8.839843.046875 15.964843 7.246094 15.921874 16.082031-.457031 2.832032.632813 5.691406 2.863282 7.496094 2.230468 1.804688 5.253906 2.277344 7.929687 1.238281 1.664063-.617187 3.429688-.917969 5.207031-.894531 8.835938 0 16 7.164062 16 16s-7.164062 16-16 16v16c17.671876-.277344 31.773438-14.832031 31.496094-32.503906s-14.832031-31.773438-32.503906-31.496094c-4.015625-15.617188-19.027344-25.808594-35.023438-23.777344-16 2.03125-27.984374 15.652344-27.96875 31.777344zm0 0" fill="url(#f)" data-original="url(#f)" style=""/><path xmlns="http://www.w3.org/2000/svg" d="m337.757812 128h16v32h-16zm0 0" fill="url(#g)" data-original="url(#g)" style=""/><path xmlns="http://www.w3.org/2000/svg" d="m337.757812 176h16v16h-16zm0 0" fill="url(#g)" data-original="url(#g)" style=""/><path xmlns="http://www.w3.org/2000/svg" d="m369.757812 152h16v48h-16zm0 0" fill="url(#h)" data-original="url(#h)" style="" class=""/><path xmlns="http://www.w3.org/2000/svg" d="m369.757812 216h16v16h-16zm0 0" fill="url(#h)" data-original="url(#h)" style="" class=""/><path xmlns="http://www.w3.org/2000/svg" d="m129.757812 128h16v32h-16zm0 0" fill="url(#i)" data-original="url(#i)" style=""/><path xmlns="http://www.w3.org/2000/svg" d="m129.757812 176h16v16h-16zm0 0" fill="url(#i)" data-original="url(#i)" style=""/><path xmlns="http://www.w3.org/2000/svg" d="m97.757812 152h16v48h-16zm0 0" fill="url(#j)" data-original="url(#j)" style=""/><path xmlns="http://www.w3.org/2000/svg" d="m97.757812 216h16v16h-16zm0 0" fill="url(#j)" data-original="url(#j)" style=""/></g></svg>
