<?xml version="1.0" encoding="UTF-8" standalone="no"?>
<svg
   xmlns:dc="http://purl.org/dc/elements/1.1/"
   xmlns:cc="http://creativecommons.org/ns#"
   xmlns:rdf="http://www.w3.org/1999/02/22-rdf-syntax-ns#"
   xmlns:svg="http://www.w3.org/2000/svg"
   xmlns="http://www.w3.org/2000/svg"
   xmlns:xlink="http://www.w3.org/1999/xlink"
   xmlns:sodipodi="http://sodipodi.sourceforge.net/DTD/sodipodi-0.dtd"
   xmlns:inkscape="http://www.inkscape.org/namespaces/inkscape"
   version="1.1"
   width="272.96338"
   height="511.99792"
   x="0"
   y="0"
   viewBox="0 0 255.90317 480.17967"
   xml:space="preserve"
   class=""
   id="svg37"
   sodipodi:docname="5.svg"
   inkscape:version="0.92.4 (unknown)"><metadata
     id="metadata43"><rdf:RDF><cc:Work
         rdf:about=""><dc:format>image/svg+xml</dc:format><dc:type
           rdf:resource="http://purl.org/dc/dcmitype/StillImage" /><dc:title></dc:title></cc:Work></rdf:RDF></metadata><defs
     id="defs41" /><sodipodi:namedview
     pagecolor="#ffffff"
     bordercolor="#666666"
     borderopacity="1"
     objecttolerance="10"
     gridtolerance="10"
     guidetolerance="10"
     inkscape:pageopacity="0"
     inkscape:pageshadow="2"
     inkscape:window-width="2560"
     inkscape:window-height="1376"
     id="namedview39"
     showgrid="false"
     fit-margin-top="0"
     fit-margin-left="0"
     fit-margin-right="0"
     fit-margin-bottom="0"
     inkscape:zoom="0.4609375"
     inkscape:cx="12.824325"
     inkscape:cy="164.8793"
     inkscape:window-x="0"
     inkscape:window-y="27"
     inkscape:window-maximized="1"
     inkscape:current-layer="svg37" /><g
     id="g35"
     transform="translate(-0.1806538)"><linearGradient
       id="a"><stop
         stop-opacity="1"
         stop-color="#f6bc31"
         offset="0.009652509652509652"
         id="stop2" /><stop
         stop-opacity="1"
         stop-color="#f3903f"
         offset="0.5"
         id="stop4" /><stop
         stop-opacity="1"
         stop-color="#ed683c"
         offset="1"
         id="stop6" /><stop
         stop-opacity="1"
         stop-color="#e35624"
         offset="1"
         id="stop8" /></linearGradient><linearGradient
       id="b"
       gradientUnits="userSpaceOnUse"
       x1="128.7868"
       x2="126.72281"
       xlink:href="#a"
       y1="497.98163"
       y2="-5.3463821" /><linearGradient
       id="c"
       gradientUnits="userSpaceOnUse"
       x1="25.83481"
       x2="23.778811"
       xlink:href="#a"
       y1="498.40561"
       y2="-4.9223819" /><linearGradient
       id="d"
       gradientUnits="userSpaceOnUse"
       x1="30.009096"
       x2="27.953096"
       xlink:href="#a"
       y1="498.38098"
       y2="-4.9550109" /><linearGradient
       id="e"
       gradientUnits="userSpaceOnUse"
       x1="29.650494"
       x2="27.594494"
       xlink:href="#a"
       y1="498.38437"
       y2="-4.9436388" /><linearGradient
       id="f"
       gradientUnits="userSpaceOnUse"
       x1="233.82681"
       x2="231.77081"
       xlink:href="#a"
       y1="497.55762"
       y2="-5.7783818" /><linearGradient
       id="g"
       gradientUnits="userSpaceOnUse"
       x1="230.01637"
       x2="227.96037"
       xlink:href="#a"
       y1="497.5733"
       y2="-5.7627101" /><linearGradient
       id="h"
       gradientUnits="userSpaceOnUse"
       x1="229.6441"
       x2="227.5881"
       xlink:href="#a"
       y1="497.57101"
       y2="-5.7649951" /><linearGradient
       id="i"
       gradientUnits="userSpaceOnUse"
       x1="129.85081"
       x2="127.78681"
       xlink:href="#a"
       y1="497.98163"
       y2="-5.354382" /><path
       d="m 248.08984,304.17969 h -112 v -24 h 48 c 22.08203,-0.0234 39.97266,-17.91797 40,-40 v -32 c 0,-4.41797 -3.58203,-8 -8,-8 h -56 c -8.68359,0.0312 -17.11718,2.91406 -24,8.21093 v -17.34375 c 11.67188,-3.01562 20.65625,-12.33203 23.25,-24.10546 7.44532,-2.29297 13.29297,-8.09375 15.64453,-15.51954 2.35157,-7.42578 0.90625,-15.53515 -3.86328,-21.69531 C 196,111.17969 206.19922,78.78125 196.42969,49.332031 186.66016,19.878906 159.12109,0 128.08984,0 97.0625,0 69.523438,19.878906 59.753906,49.332031 c -9.769531,29.449219 0.425782,61.847659 25.304688,80.394529 -4.769532,6.16016 -6.210938,14.26953 -3.859375,21.69531 2.351562,7.42579 8.199219,13.22657 15.644531,15.51954 2.589844,11.77343 11.57813,21.08984 23.24609,24.10546 v 25.34375 c -6.88281,-5.29687 -15.3164,-8.17968 -23.999996,-8.21093 h -56 c -4.417969,0 -8,3.58203 -8,8 v 32 c 0.02734,22.08203 17.921875,39.97656 40,40 h 47.999996 v 16 H 8.089844 c -4.417969,0 -8.0000002,3.58203 -8.0000002,8 v 32 c 0,4.42187 3.5820312,8 8.0000002,8 h 8.9375 L 32.15625,473.17187 c 0.5,4.00391 3.902344,7.00782 7.933594,7.00782 H 216.08984 c 4.03516,0 7.4375,-3.00391 7.9375,-7.00782 l 15.12891,-120.99218 h 8.93359 c 4.41797,0 8,-3.57813 8,-8 v -32 c 0,-4.41797 -3.58203,-8 -8,-8 z m -88,-88 h 48 v 24 c 0,13.25781 -10.74609,24 -24,24 h -48 v -24 c 0,-13.25391 10.7461,-24 24,-24 z m -8,-64 h -48 c -4.417965,0 -7.999996,-3.57813 -7.999996,-8 0,-4.41797 3.582031,-8 7.999996,-8 h 48 c 4.41797,0 8,3.58203 8,8 0,4.42187 -3.58203,8 -8,8 z M 72.089844,72.179688 c -0.09375,-27.222657 19.402344,-50.570313 46.207036,-55.332032 26.80468,-4.761718 53.15234,10.445313 62.43749,36.039063 9.28516,25.589843 -1.18359,54.152341 -24.80468,67.687501 -1.26563,-0.23828 -2.55078,-0.36719 -3.83985,-0.39453 h -48 c -1.28515,0.0273 -2.5664,0.15625 -3.83203,0.38672 C 82.832031,110.69531 72.070312,92.207031 72.089844,72.179688 Z m 42.226566,96.000002 h 27.55078 c -2.82422,4.94531 -8.08203,8 -13.77735,8 -5.69531,0 -10.94921,-3.05469 -13.77343,-8 z m -42.226566,104 c -13.253906,0 -24,-10.74219 -24,-24 v -24 h 48 c 13.253906,0 23.999996,10.74609 23.999996,24 v 24 z m 136.937496,192 H 47.15625 l -14,-112 h 189.87109 z m 31.0625,-128 H 16.089844 v -16 H 240.08984 Z m 0,0"
       data-original="url(#b)"
       style="fill:url(#b)"
       class=""
       id="path19"
       inkscape:connector-curvature="0" /><path
       d="m 8.089844,64.179688 h 32 v 16 h -32 z m 0,0"
       data-original="url(#c)"
       style="fill:url(#c)"
       id="path21"
       inkscape:connector-curvature="0" /><path
       d="m 10.433594,21.835938 11.3125,-11.3125 24.003906,24 -11.316406,11.316406 z m 0,0"
       data-original="url(#d)"
       style="fill:url(#d)"
       id="path23"
       inkscape:connector-curvature="0" /><path
       d="M 10.433594,122.51953 34.4375,98.519531 45.75,109.83203 l -24,24.00391 z m 0,0"
       data-original="url(#e)"
       style="fill:url(#e)"
       id="path25"
       inkscape:connector-curvature="0" /><path
       d="m 216.08984,64.179688 h 32 v 16 h -32 z m 0,0"
       data-original="url(#f)"
       style="fill:url(#f)"
       id="path27"
       inkscape:connector-curvature="0" /><path
       d="m 210.4375,34.523438 24.00391,-24.003907 11.3125,11.3125 -24,24.003907 z m 0,0"
       data-original="url(#g)"
       style="fill:url(#g)"
       id="path29"
       inkscape:connector-curvature="0" /><path
       d="m 210.43359,109.83984 11.3125,-11.312496 24,23.999996 -11.3125,11.31641 z m 0,0"
       data-original="url(#h)"
       style="fill:url(#h)"
       id="path31"
       inkscape:connector-curvature="0" /><path
       d="m 118.74609,92.621094 9.34375,-14.039063 9.34375,14.015625 c 1.48438,2.226563 3.98438,3.5625 6.65625,3.5625 2.67578,0 5.17188,-1.335937 6.65625,-3.5625 l 16,-24 -13.3125,-8.878906 -9.34375,14.0625 -9.34375,-14.039062 c -1.57031,-2.097657 -4.03515,-3.332032 -6.65625,-3.332032 -2.61718,0 -5.08593,1.234375 -6.65625,3.332032 l -9.34375,14.039062 -9.34375,-14.039062 -13.312496,8.878906 15.999996,24 c 1.57032,2.097656 4.03907,3.332031 6.65625,3.332031 2.6211,0 5.08594,-1.234375 6.65625,-3.332031 z m 0,0"
       data-original="url(#i)"
       style="fill:url(#i)"
       id="path33"
       inkscape:connector-curvature="0" /></g></svg>