<?xml version="1.0" encoding="UTF-8" standalone="no"?>
<svg
   xmlns:dc="http://purl.org/dc/elements/1.1/"
   xmlns:cc="http://creativecommons.org/ns#"
   xmlns:rdf="http://www.w3.org/1999/02/22-rdf-syntax-ns#"
   xmlns:svg="http://www.w3.org/2000/svg"
   xmlns="http://www.w3.org/2000/svg"
   xmlns:xlink="http://www.w3.org/1999/xlink"
   xmlns:sodipodi="http://sodipodi.sourceforge.net/DTD/sodipodi-0.dtd"
   xmlns:inkscape="http://www.inkscape.org/namespaces/inkscape"
   version="1.1"
   width="298.66666"
   height="512"
   x="0"
   y="0"
   viewBox="0 0 279.99999 480"
   xml:space="preserve"
   class=""
   id="svg46"
   sodipodi:docname="6.svg"
   inkscape:version="0.92.4 (unknown)"><metadata
     id="metadata52"><rdf:RDF><cc:Work
         rdf:about=""><dc:format>image/svg+xml</dc:format><dc:type
           rdf:resource="http://purl.org/dc/dcmitype/StillImage" /><dc:title></dc:title></cc:Work></rdf:RDF></metadata><defs
     id="defs50" /><sodipodi:namedview
     pagecolor="#ffffff"
     bordercolor="#666666"
     borderopacity="1"
     objecttolerance="10"
     gridtolerance="10"
     guidetolerance="10"
     inkscape:pageopacity="0"
     inkscape:pageshadow="2"
     inkscape:window-width="890"
     inkscape:window-height="480"
     id="namedview48"
     showgrid="false"
     fit-margin-top="0"
     fit-margin-left="0"
     fit-margin-right="0"
     fit-margin-bottom="0"
     inkscape:zoom="0.4609375"
     inkscape:cx="4.3389831"
     inkscape:cy="256"
     inkscape:window-x="0"
     inkscape:window-y="27"
     inkscape:window-maximized="0"
     inkscape:current-layer="svg46" /><g
     id="g44"><linearGradient
       id="a"><stop
         offset="0"
         stop-color="#e93e3a"
         id="stop2" /><stop
         offset=".35"
         stop-color="#ed683c"
         id="stop4" /><stop
         offset=".7"
         stop-color="#f3903f"
         id="stop6" /><stop
         offset="1"
         stop-color="#fdc70c"
         id="stop8" /></linearGradient><linearGradient
       id="b"
       gradientUnits="userSpaceOnUse"
       x1="159.424"
       x2="158.392"
       xlink:href="#a"
       y1="496.72"
       y2="-16.912001" /><linearGradient
       id="c"
       gradientUnits="userSpaceOnUse"
       x1="136.728"
       x2="135.70399"
       xlink:href="#a"
       y1="496.76001"
       y2="-16.864" /><linearGradient
       id="d"
       gradientUnits="userSpaceOnUse"
       x1="136.96001"
       x2="135.936"
       xlink:href="#a"
       y1="496.76001"
       y2="-16.864" /><linearGradient
       id="e"
       gradientUnits="userSpaceOnUse"
       x1="76.92926"
       x2="75.905258"
       xlink:href="#a"
       y1="496.87756"
       y2="-16.746435" /><linearGradient
       id="f"
       gradientUnits="userSpaceOnUse"
       x1="32.916363"
       x2="31.884361"
       xlink:href="#a"
       y1="496.96851"
       y2="-16.655493" /><linearGradient
       id="g"
       gradientUnits="userSpaceOnUse"
       x1="16.719999"
       x2="15.696"
       xlink:href="#a"
       y1="497"
       y2="-16.624001" /><linearGradient
       id="h"
       gradientUnits="userSpaceOnUse"
       x1="32.680107"
       x2="31.648109"
       xlink:href="#a"
       y1="496.97049"
       y2="-16.653511" /><linearGradient
       id="i"
       gradientUnits="userSpaceOnUse"
       x1="240.53369"
       x2="239.50169"
       xlink:href="#a"
       y1="496.55087"
       y2="-17.073141" /><linearGradient
       id="j"
       gradientUnits="userSpaceOnUse"
       x1="256.72"
       x2="255.696"
       xlink:href="#a"
       y1="496.51999"
       y2="-17.104" /><linearGradient
       id="k"
       gradientUnits="userSpaceOnUse"
       x1="240.76437"
       x2="239.73238"
       xlink:href="#a"
       y1="496.5481"
       y2="-17.075909" /><linearGradient
       id="l"
       gradientUnits="userSpaceOnUse"
       x1="196.92343"
       x2="195.89943"
       xlink:href="#a"
       y1="496.63605"
       y2="-16.987942" /><path
       d="m 224,288 h -56 v -57.47266 c 7.23437,-2.49609 12.82422,-8.32422 15.01172,-15.66015 2.1875,-7.33203 0.70703,-15.27344 -3.98047,-21.32422 C 203.91016,175 214.10937,142.60156 204.33984,113.14844 194.57031,83.699219 167.03125,63.820312 136,63.820312 c -31.03125,0 -58.570312,19.878907 -68.339844,49.328128 -9.769531,29.45312 0.429688,61.85156 25.308594,80.39453 -4.6875,6.05078 -6.167969,13.99219 -3.980469,21.32422 2.1875,7.33593 7.777344,13.16406 15.011719,15.66015 v 87.25782 l -9.28125,-11.0586 c -7.144531,-9.36718 -18.859375,-14.05468 -30.496094,-12.19531 -11.632812,1.85938 -21.304687,9.96094 -25.175781,21.09375 -3.867187,11.12891 -1.308594,23.48438 6.664063,32.16016 l 60.152342,71.75 c 3.36328,11.1914 11.44922,20.34765 22.13672,25.07421 V 472 c 0,4.41797 3.58203,8 8,8 h 112 c 4.41797,0 8,-3.58203 8,-8 V 444.60937 C 270.55859,438.25391 279.98047,423.88672 280,408 v -64 c -0.0352,-30.91406 -25.08594,-55.96484 -56,-56 z m -64,-72 h -48 c -4.41797,0 -8,-3.58203 -8,-8 0,-4.41797 3.58203,-8 8,-8 h 48 c 4.41797,0 8,3.58203 8,8 0,4.41797 -3.58203,8 -8,8 z M 80,136 c -0.09766,-27.22266 19.402344,-50.574219 46.20703,-55.335938 26.80469,-4.757812 53.14844,10.445313 62.43359,36.039068 9.28516,25.59374 -1.17968,54.15234 -24.80078,67.68749 C 162.57422,184.15625 161.28906,184.02344 160,184 h -48 c -1.28906,0.0234 -2.57422,0.15625 -3.83984,0.39062 C 90.738281,174.51562 79.980469,156.02734 80,136 Z M 54.265625,325.83984 c 0.363281,-4.22265 2.40625,-8.125 5.671875,-10.83203 6.832031,-5.42969 16.71875,-4.55859 22.503906,1.97656 L 104,342.67187 v 49.72657 L 57.960938,337.48828 C 55.21875,334.25781 53.886719,330.0625 54.265625,325.83984 Z M 240,464 h -96 v -16 h 96 z m 24,-56 c 0,13.25391 -10.74609,24 -24,24 h -96 c -13.25391,0 -24,-10.74609 -24,-24 V 232 h 32 v 96 h 16 v -24 h 24 v 24 h 16 v -24 h 16 c 2.6875,-0.004 5.36719,0.26562 8,0.80078 V 336 h 16 v -23.79297 c 10.03516,7.49219 15.96484,19.26953 16,31.79297 z m 0,0"
       data-original="url(#b)"
       style="fill:url(#b)"
       class=""
       id="path22"
       inkscape:connector-curvature="0" /><path
       d="M 126.65625,156.44141 136,142.39844 l 9.34375,14.01562 c 1.48437,2.22656 3.98047,3.5625 6.65625,3.5625 2.67578,0 5.17187,-1.33594 6.65625,-3.5625 l 16,-24 -13.3125,-8.8789 L 152,137.60156 142.65625,123.58594 C 141.08594,121.48438 138.62109,120.25 136,120.25 c -2.62109,0 -5.08594,1.23438 -6.65625,3.33594 L 120,137.60156 l -9.34375,-14.01562 -13.3125,8.8789 16,24 c 1.57422,2.09375 4.04297,3.32422 6.66406,3.32032 2.61719,-0.004 5.08203,-1.2461 6.64844,-3.34375 z m 0,0"
       data-original="url(#c)"
       style="fill:url(#c)"
       id="path24"
       inkscape:connector-curvature="0" /><path
       d="m 128,0 h 16 v 32 h -16 z m 0,0"
       data-original="url(#d)"
       style="fill:url(#d)"
       id="path26"
       inkscape:connector-curvature="0" /><path
       d="m 61.066406,22.214844 13.855469,-8 16,27.710937 -13.855469,8 z m 0,0"
       data-original="url(#e)"
       style="fill:url(#e)"
       id="path28"
       inkscape:connector-curvature="0" /><path
       d="m 14.21875,74.929688 8,-13.855469 27.710938,16 -8,13.859375 z m 0,0"
       data-original="url(#f)"
       style="fill:url(#f)"
       id="path30"
       inkscape:connector-curvature="0" /><path
       d="m 0,128 h 32 v 16 H 0 Z m 0,0"
       data-original="url(#g)"
       style="fill:url(#g)"
       id="path32"
       inkscape:connector-curvature="0" /><path
       d="m 14.214844,197.07422 27.710937,-16 8,13.85547 -27.710937,16 z m 0,0"
       data-original="url(#h)"
       style="fill:url(#h)"
       id="path34"
       inkscape:connector-curvature="0" /><path
       d="m 222.07031,194.92969 8.00391,-13.85547 27.71094,16 -8,13.85547 z m 0,0"
       data-original="url(#i)"
       style="fill:url(#i)"
       id="path36"
       inkscape:connector-curvature="0" /><path
       d="m 240,128 h 32 v 16 h -32 z m 0,0"
       data-original="url(#j)"
       style="fill:url(#j)"
       id="path38"
       inkscape:connector-curvature="0" /><path
       d="m 222.06641,77.066406 27.71484,-15.996094 8,13.855469 -27.71484,16 z m 0,0"
       data-original="url(#k)"
       style="fill:url(#k)"
       id="path40"
       inkscape:connector-curvature="0" /><path
       d="m 181.06641,41.933594 15.99609,-27.714844 13.85937,8 -16,27.710938 z m 0,0"
       data-original="url(#l)"
       style="fill:url(#l)"
       id="path42"
       inkscape:connector-curvature="0" /></g></svg>