<?xml version="1.0"?>
<svg xmlns="http://www.w3.org/2000/svg" xmlns:xlink="http://www.w3.org/1999/xlink" xmlns:svgjs="http://svgjs.com/svgjs" version="1.1" width="512" height="512" x="0" y="0" viewBox="0 0 480 480.00008" style="enable-background:new 0 0 512 512" xml:space="preserve" class=""><g><linearGradient xmlns="http://www.w3.org/2000/svg" id="a"><stop offset="0" stop-color="#e93e3a"/><stop offset=".35" stop-color="#ed683c"/><stop offset=".7" stop-color="#f3903f"/><stop offset="1" stop-color="#fdc70c"/></linearGradient><linearGradient xmlns="http://www.w3.org/2000/svg" xmlns:xlink="http://www.w3.org/1999/xlink" id="b" gradientUnits="userSpaceOnUse" x1="199.46404" x2="200.49604" xlink:href="#a" y1="496.712076" y2="-13.823924"/><linearGradient xmlns="http://www.w3.org/2000/svg" xmlns:xlink="http://www.w3.org/1999/xlink" id="c" gradientUnits="userSpaceOnUse" x1="327.13604" x2="328.16804" xlink:href="#a" y1="496.976076" y2="-13.567924"/><linearGradient xmlns="http://www.w3.org/2000/svg" xmlns:xlink="http://www.w3.org/1999/xlink" id="d" gradientUnits="userSpaceOnUse" x1="223.14404" x2="224.17604" xlink:href="#a" y1="496.760076" y2="-13.775924"/><linearGradient xmlns="http://www.w3.org/2000/svg" xmlns:xlink="http://www.w3.org/1999/xlink" id="e" gradientUnits="userSpaceOnUse" x1="227.060291" x2="228.092291" xlink:href="#a" y1="496.76829" y2="-13.76771"/><linearGradient xmlns="http://www.w3.org/2000/svg" xmlns:xlink="http://www.w3.org/1999/xlink" id="f" gradientUnits="userSpaceOnUse" x1="227.237688" x2="228.269688" xlink:href="#a" y1="496.771662" y2="-13.764338"/><linearGradient xmlns="http://www.w3.org/2000/svg" xmlns:xlink="http://www.w3.org/1999/xlink" id="g" gradientUnits="userSpaceOnUse" x1="431.14404" x2="432.17604" xlink:href="#a" y1="497.184076" y2="-13.351924"/><linearGradient xmlns="http://www.w3.org/2000/svg" xmlns:xlink="http://www.w3.org/1999/xlink" id="h" gradientUnits="userSpaceOnUse" x1="427.053909" x2="428.077909" xlink:href="#a" y1="497.178934" y2="-13.357066"/><linearGradient xmlns="http://www.w3.org/2000/svg" xmlns:xlink="http://www.w3.org/1999/xlink" id="i" gradientUnits="userSpaceOnUse" x1="427.231305" x2="428.263305" xlink:href="#a" y1="497.182306" y2="-13.353694"/><path xmlns="http://www.w3.org/2000/svg" d="m328 0c-31.007812-.046875-58.554688 19.796875-68.328125 49.226562-9.773437 29.429688.421875 61.808594 25.296875 80.324219-4.769531 6.160157-6.214844 14.269531-3.863281 21.695313 2.355469 7.425781 8.199219 13.222656 15.648437 15.515625 2.589844 11.769531 11.574219 21.085937 23.246094 24.101562v241.136719c0 13.253906-10.746094 24-24 24s-24-10.746094-24-24v-168c-.027344-22.082031-17.917969-39.972656-40-40h-48c0-35.347656-28.652344-64-64-64s-64 28.652344-64 64v24c0 4.417969 3.582031 8 8 8v8c.011719 18.300781 8.976562 35.4375 24 45.886719v12l-46.769531 12.730469c-24.296875 6.730468-41.1484378 28.808593-41.230469 54.023437v83.359375c0 4.417969 3.582031 8 8 8h224c4.417969 0 8-3.582031 8-8v-83.359375c-.082031-25.226563-16.941406-47.316406-41.257812-54.039063l-46.742188-12.722656v-12c15.023438-10.445312 23.984375-27.582031 24-45.878906v-8c4.417969 0 8-3.582031 8-8v-8h48c13.253906 0 24 10.746094 24 24v168c0 22.089844 17.910156 40 40 40s40-17.910156 40-40v-241.136719c11.671875-3.015625 20.65625-12.332031 23.246094-24.101562 7.449218-2.292969 13.292968-8.089844 15.648437-15.515625 2.351563-7.425782.90625-15.535156-3.863281-21.695313 24.875-18.515625 35.070312-50.894531 25.296875-80.324219-9.773437-29.429687-37.320313-49.273437-68.328125-49.226562zm-256 224c0-26.507812 21.492188-48 48-48s48 21.492188 48 48v16h-5.265625c-7.339844 0-13.738281-4.996094-15.519531-12.121094l-3.453125-13.816406c-.75-2.992188-3.152344-5.289062-6.175781-5.902344-.523438-.105468-1.054688-.160156-1.585938-.160156-2.519531 0-4.890625 1.1875-6.398438 3.199219l-4.800781 6.402343c-10.605469 14.066407-27.183593 22.355469-44.800781 22.398438h-8zm152 164.640625v75.359375h-24v-72h-16v72h-128v-72h-16v72h-24v-75.359375c.058594-18.015625 12.101562-33.792969 29.464844-38.601563l37.734375-10.269531 31.679687 26.398438c2.96875 2.472656 7.273438 2.472656 10.242188 0l31.679687-26.398438 37.710938 10.261719c17.371093 4.804688 29.421875 20.585938 29.488281 38.609375zm-85.207031-54.695313-18.792969 15.65625-18.792969-15.648437c1.75-1.484375 2.769531-3.65625 2.792969-5.953125v-10.398438c10.433594 3.144532 21.566406 3.144532 32 0v10.398438c.027344 2.292969 1.042969 4.460938 2.792969 5.945312zm-18.792969-29.945312c-22.082031-.027344-39.972656-17.917969-40-40v-8c19.726562-.039062 38.582031-8.128906 52.199219-22.398438 3.898437 12.355469 14.886719 21.121094 27.800781 22.175782v8.222656c-.027344 22.082031-17.917969 39.972656-40 40zm208-128c-5.691406-.015625-10.941406-3.066406-13.777344-8h27.554688c-2.835938 4.933594-8.085938 7.984375-13.777344 8zm24-24h-48c-4.417969 0-8-3.582031-8-8s3.582031-8 8-8h48c4.417969 0 8 3.582031 8 8s-3.582031 8-8 8zm3.832031-31.617188c-1.265625-.226562-2.546875-.355468-3.832031-.382812h-48c-1.285156.027344-2.566406.15625-3.832031.382812-22.023438-12.613281-32.8125-38.464843-26.285157-62.992187 6.527344-24.527344 28.734376-41.601563 54.117188-41.601563s47.589844 17.074219 54.117188 41.601563c6.527343 24.527344-4.261719 50.378906-26.285157 62.992187zm0 0" fill="url(#b)" data-original="url(#b)" style="" class=""/><path xmlns="http://www.w3.org/2000/svg" d="m344 73.601562-9.34375-14.042968c-1.570312-2.097656-4.035156-3.332032-6.65625-3.332032s-5.085938 1.234376-6.65625 3.332032l-9.34375 14.042968-9.34375-14.042968-13.3125 8.882812 16 24c1.570312 2.097656 4.035156 3.332032 6.65625 3.332032s5.085938-1.234376 6.65625-3.332032l9.34375-14.042968 9.34375 14.019531c1.484375 2.222656 3.980469 3.558593 6.65625 3.558593s5.171875-1.335937 6.65625-3.558593l16-24-13.3125-8.882813zm0 0" fill="url(#c)" data-original="url(#c)" style=""/><path xmlns="http://www.w3.org/2000/svg" d="m208 64h32v16h-32zm0 0" fill="url(#d)" data-original="url(#d)" style=""/><path xmlns="http://www.w3.org/2000/svg" d="m210.347656 21.65625 11.3125-11.3125 24.003906 24.003906-11.316406 11.3125zm0 0" fill="url(#e)" data-original="url(#e)" style=""/><path xmlns="http://www.w3.org/2000/svg" d="m210.347656 122.34375 24.003906-24.003906 11.3125 11.3125-24 24.003906zm0 0" fill="url(#f)" data-original="url(#f)" style=""/><path xmlns="http://www.w3.org/2000/svg" d="m416 64h32v16h-32zm0 0" fill="url(#g)" data-original="url(#g)" style=""/><path xmlns="http://www.w3.org/2000/svg" d="m410.34375 34.34375 24.003906-24.003906 11.3125 11.316406-24 24zm0 0" fill="url(#h)" data-original="url(#h)" style=""/><path xmlns="http://www.w3.org/2000/svg" d="m410.347656 109.660156 11.3125-11.3125 24 24.003906-11.3125 11.3125zm0 0" fill="url(#i)" data-original="url(#i)" style=""/></g></svg>
