<svg height="480pt" viewBox="0 0 480 480" width="480pt" xmlns="http://www.w3.org/2000/svg" xmlns:xlink="http://www.w3.org/1999/xlink"><linearGradient id="a"><stop offset="0" stop-color="#e93e3a"/><stop offset=".35" stop-color="#ed683c"/><stop offset=".7" stop-color="#f3903f"/><stop offset="1" stop-color="#fdc70c"/></linearGradient><linearGradient id="b" gradientUnits="userSpaceOnUse" x1="240" x2="240" xlink:href="#a" y1="491.464" y2="-11.056"/><linearGradient id="c" gradientUnits="userSpaceOnUse" x1="109.902539" x2="109.902539" xlink:href="#a" y1="491.466709" y2="-11.053291"/><linearGradient id="d" gradientUnits="userSpaceOnUse" x1="56" x2="56" xlink:href="#a" y1="491.464" y2="-11.056"/><linearGradient id="e" gradientUnits="userSpaceOnUse" x1="109.903037" x2="109.903037" xlink:href="#a" y1="491.459911" y2="-11.060089"/><linearGradient id="f" gradientUnits="userSpaceOnUse" x1="424" x2="424" xlink:href="#a" y1="491.464" y2="-11.056"/><linearGradient id="g" gradientUnits="userSpaceOnUse" x1="370.114615" x2="370.114615" xlink:href="#a" y1="491.472187" y2="-11.047813"/><linearGradient id="h" gradientUnits="userSpaceOnUse" x1="239.504" x2="239.504" xlink:href="#a" y1="491.464" y2="-11.056"/><linearGradient id="i" gradientUnits="userSpaceOnUse" x1="220" x2="220" xlink:href="#a" y1="491.464" y2="-11.056"/><linearGradient id="j" gradientUnits="userSpaceOnUse" x1="136" x2="136" xlink:href="#a" y1="491.464" y2="-11.056"/><linearGradient id="k" gradientUnits="userSpaceOnUse" x1="360" x2="360" xlink:href="#a" y1="491.464" y2="-11.056"/><linearGradient id="l" gradientUnits="userSpaceOnUse" x1="272" x2="272" xlink:href="#a" y1="491.464" y2="-11.056"/><linearGradient id="m" gradientUnits="userSpaceOnUse" x1="448" x2="448" xlink:href="#a" y1="491.464" y2="-11.056"/><path d="m472.992188 192.0625-48.71875-6.085938c-3.875-13.214843-9.171876-25.96875-15.792969-38.039062l30.167969-38.792969c2.476562-3.183593 2.195312-7.714843-.65625-10.570312l-56.566407-56.566407c-2.855469-2.855468-7.390625-3.136718-10.578125-.65625l-38.792968 30.167969c-12.070313-6.617187-24.820313-11.914062-38.03125-15.792969l-6.085938-48.71875c-.5-4.003906-3.902344-7.007812-7.9375-7.007812h-80c-4.035156 0-7.4375 3.003906-7.9375 7.007812l-6.085938 48.71875c-13.210937 3.878907-25.964843 9.175782-38.039062 15.792969l-38.792969-30.167969c-3.183593-2.476562-7.714843-2.195312-10.570312.65625l-56.566407 56.566407c-2.851562 2.855469-3.132812 7.386719-.65625 10.570312l30.167969 38.792969c-6.617187 12.074219-11.914062 24.828125-15.792969 38.039062l-48.71875 6.085938c-4.003906.5-7.007812 3.902344-7.007812 7.9375v80c0 4.035156 3.003906 7.4375 7.007812 7.9375l48.71875 6.085938c3.878907 13.210937 9.175782 25.964843 15.792969 38.039062l-30.167969 38.792969c-2.476562 3.183593-2.195312 7.714843.65625 10.570312l56.566407 56.566407c2.855469 2.851562 7.386719 3.132812 10.570312.65625l38.792969-30.167969c12.074219 6.617187 24.828125 11.914062 38.039062 15.792969l6.085938 48.71875c.5 4.003906 3.902344 7.007812 7.9375 7.007812h80v-16h-72.9375l-5.878906-47c-.402344-3.246094-2.742188-5.917969-5.902344-6.753906-15.429688-4.050782-30.234375-10.1875-44-18.246094-2.824219-1.652344-6.371094-1.421875-8.953125.585938l-37.433594 29.09375-46.574219-46.574219 29.113282-37.433594c2-2.585937 2.226562-6.132813.566406-8.953125-8.066406-13.765625-14.210938-28.566406-18.265625-44-.832031-3.160156-3.503906-5.5-6.75-5.902344l-46.984375-5.878906v-65.875l47-5.878906c3.246094-.402344 5.917969-2.742188 6.753906-5.902344 4.050782-15.429688 10.1875-30.234375 18.246094-44 1.652344-2.824219 1.421875-6.371094-.585938-8.953125l-29.09375-37.433594 46.574219-46.574219 37.433594 29.113282c2.585937 2 6.132813 2.226562 8.953125.566406 13.765625-8.0625 28.570312-14.207031 44-18.265625 3.160156-.832031 5.5-3.503906 5.902344-6.75l5.878906-46.984375h65.875l5.878906 47c.402344 3.25 2.746094 5.921875 5.910156 6.753906 15.429688 4.050782 30.230469 10.1875 43.992188 18.246094 2.824219 1.652344 6.371094 1.421875 8.953125-.585938l37.433594-29.09375 46.582031 46.574219-29.121094 37.433594c-2 2.585937-2.226562 6.132813-.566406 8.953125 8.070312 13.761719 14.21875 28.566406 18.273438 44 .832031 3.160156 3.503906 5.5 6.75 5.902344l46.976562 5.878906v72.9375h16v-80c0-4.035156-3.003906-7.4375-7.007812-7.9375zm0 0" fill="url(#b)"/><path d="m232 48h16v16h-16zm0 0" fill="url(#b)"/><path d="m98.582031 109.890625 11.3125-11.3125 11.3125 11.3125-11.3125 11.3125zm0 0" fill="url(#c)"/><path d="m48 232h16v16h-16zm0 0" fill="url(#d)"/><path d="m98.582031 370.109375 11.3125-11.3125 11.3125 11.3125-11.3125 11.316406zm0 0" fill="url(#e)"/><path d="m416 232h16v16h-16zm0 0" fill="url(#f)"/><path d="m358.800781 109.898438 11.3125-11.316407 11.316407 11.3125-11.3125 11.316407zm0 0" fill="url(#g)"/><path d="m223.070312 383.015625 1.859376-15.886719c-66.320313-7.875-115.441407-65.414062-112.808594-132.148437 2.628906-66.734375 56.125-120.230469 122.859375-122.859375 66.734375-2.632813 124.273437 46.488281 132.148437 112.808594l15.886719-1.859376c-8.839844-74.617187-73.574219-129.894531-148.660156-126.941406-75.082031 2.953125-135.273438 63.144532-138.226563 138.226563-2.953125 75.085937 52.324219 139.820312 126.941406 148.660156zm0 0" fill="url(#h)"/><path d="m264 240c-.042969-10.132812-6.445312-19.148438-16-22.527344v-57.472656h-16v57.472656c-6.777344 2.417969-12.109375 7.75-14.527344 14.527344h-41.472656v16h41.472656c3.878906 11.011719 15.132813 17.621094 26.640625 15.644531 11.507813-1.980469 19.910157-11.96875 19.886719-23.644531zm-32 0c0-4.417969 3.582031-8 8-8s8 3.582031 8 8-3.582031 8-8 8-8-3.582031-8-8zm0 0" fill="url(#i)"/><path d="m128 232h16v16h-16zm0 0" fill="url(#j)"/><path d="m232 128h16v16h-16zm0 0" fill="url(#b)"/><path d="m360 240c-66.273438 0-120 53.726562-120 120s53.726562 120 120 120 120-53.726562 120-120c-.074219-66.242188-53.757812-119.925781-120-120zm-32 218.910156v-26.910156h-16v20.167969c-5.640625-2.96875-10.996094-6.453125-16-10.398438v-9.609375c.023438-10.714844 7.117188-20.128906 17.40625-23.113281l17.394531-4.957031 24.398438 18.308594c2.84375 2.136718 6.757812 2.136718 9.601562 0l24.390625-18.308594 17.402344 4.964844c10.289062 2.976562 17.382812 12.390624 17.40625 23.105468v9.648438c-5.003906 3.949218-10.359375 7.429687-16 10.398437v-20.207031h-16v26.910156c-20.792969 6.785156-43.207031 6.785156-64 0zm58.71875-143.34375-3.558594-7.132812c-1.027344-2.054688-2.882812-3.570313-5.105468-4.160156-2.21875-.582032-4.578126-.191407-6.496094 1.070312l-11.902344 7.9375c-6.566406 4.386719-14.289062 6.722656-22.183594 6.71875h-9.472656c-.0625-17.671875 14.214844-32.050781 31.886719-32.113281 17.675781-.0625 32.050781 14.214843 32.113281 31.890625-2.292969-.554688-4.226562-2.097656-5.28125-4.210938zm-49.246094 20.433594c11.054688.007812 21.863282-3.265625 31.054688-9.40625l4.382812-2.921875c2.519532 4.445313 6.410156 7.953125 11.089844 10v10.328125c0 13.253906-10.746094 24-24 24s-24-10.746094-24-24v-8zm22.527344 48c2.6875.003906 5.367188-.265625 8-.800781v8.800781c.027344 2.277344 1.03125 4.433594 2.761719 5.921875l-10.761719 8.078125-10.761719-8.078125c1.730469-1.488281 2.734375-3.644531 2.761719-5.921875v-8.800781c2.632812.535156 5.3125.804687 8 .800781zm79.558594 42.847656c-2.113282-15.738281-13.3125-28.746094-28.558594-33.183594l-27-7.710937v-10.160156c10.035156-7.492188 15.964844-19.269531 16-31.792969v-8c4.417969 0 8-3.582031 8-8v-8c0-26.507812-21.492188-48-48-48s-48 21.492188-48 48v8c0 4.417969 3.582031 8 8 8v8c.035156 12.523438 5.964844 24.300781 16 31.792969v10.160156l-26.992188 7.710937c-15.25 4.433594-26.449218 17.445313-28.566406 33.183594-35.507812-42.175781-31.933594-104.730468 8.148438-142.585937 40.082031-37.855469 102.738281-37.855469 142.820312 0 40.082032 37.855469 43.65625 100.410156 8.148438 142.585937zm0 0" fill="url(#k)"/><path d="m264 352h16v16h-16zm0 0" fill="url(#l)"/><path d="m440 352h16v16h-16zm0 0" fill="url(#m)"/></svg>