<svg height="491pt" viewBox="-22 0 491 491.368" width="491pt" xmlns="http://www.w3.org/2000/svg" xmlns:xlink="http://www.w3.org/1999/xlink"><linearGradient id="a"><stop offset="0" stop-color="#e93e3a"/><stop offset=".35" stop-color="#ed683c"/><stop offset=".7" stop-color="#f3903f"/><stop offset="1" stop-color="#fdc70c"/></linearGradient><linearGradient id="b" gradientUnits="userSpaceOnUse" x1="224.700344" x2="223.668344" xlink:href="#a" y1="499.328" y2="-9.152"/><linearGradient id="c" gradientUnits="userSpaceOnUse" x1="224.724344" x2="223.692344" xlink:href="#a" y1="499.328" y2="-9.152"/><linearGradient id="d" gradientUnits="userSpaceOnUse" x1="264.724344" x2="263.692344" xlink:href="#a" y1="499.248" y2="-9.232"/><linearGradient id="e" gradientUnits="userSpaceOnUse" x1="184.724344" x2="183.692344" xlink:href="#a" y1="499.408" y2="-9.072"/><linearGradient id="f" gradientUnits="userSpaceOnUse" x1="333.020344" x2="331.996344" xlink:href="#a" y1="499.104" y2="-9.376"/><linearGradient id="g" gradientUnits="userSpaceOnUse" x1="116.588344" x2="115.556344" xlink:href="#a" y1="499.544" y2="-8.936"/><linearGradient id="h" gradientUnits="userSpaceOnUse" x1="360.804344" x2="359.772344" xlink:href="#a" y1="499.048" y2="-9.432"/><linearGradient id="i" gradientUnits="userSpaceOnUse" x1="356.934217" x2="355.910217" xlink:href="#a" y1="499.05875" y2="-9.42125"/><linearGradient id="j" gradientUnits="userSpaceOnUse" x1="356.660739" x2="355.628739" xlink:href="#a" y1="499.055182" y2="-9.424818"/><linearGradient id="k" gradientUnits="userSpaceOnUse" x1="88.804344" x2="87.780344" xlink:href="#a" y1="499.6" y2="-8.88"/><linearGradient id="l" gradientUnits="userSpaceOnUse" x1="92.943415" x2="91.919415" xlink:href="#a" y1="499.59094" y2="-8.88906"/><linearGradient id="m" gradientUnits="userSpaceOnUse" x1="92.669937" x2="91.637937" xlink:href="#a" y1="499.587372" y2="-8.892628"/><path d="m176.292969 125.65625c-2.625 0-5.082031 1.285156-6.578125 3.441406s-1.839844 4.910156-.917969 7.367188l16.945313 45.191406h-9.449219v12.992188c-29.664063 17.125-47.953125 48.757812-48 83.007812v40c.035156 30.914062 25.085937 55.964844 56 56h80c30.914062-.035156 55.964843-25.085938 56-56v-40c-.046875-34.25-18.339844-65.882812-48-83.007812v-12.992188h-9.449219l16.945312-45.191406c.921876-2.457032.578126-5.210938-.917968-7.367188s-3.953125-3.441406-6.578125-3.441406c-2.890625-.207031-5.664063-1.230469-8-2.945312-4.753907-3.152344-10.296875-4.902344-16-5.054688-7.316407.6875-13.933594 4.628906-18.015625 10.734375-1.984375 2.21875-4.617188 5.265625-5.984375 5.265625-1.367188 0-4-3.046875-5.984375-5.265625-4.085938-6.105469-10.703125-10.046875-18.015625-10.734375-5.703125.152344-11.246094 1.902344-16 5.054688-2.335938 1.714843-5.109375 2.738281-8 2.945312zm128 152v40c-.027344 22.082031-17.921875 39.972656-40 40h-80c-22.082031-.027344-39.972657-17.917969-40-40v-40c.042969-32.449219 19.660156-61.667969 49.679687-73.992188-1.085937 3.21875-1.652344 6.59375-1.679687 9.992188v8h16v-8c0-8.835938 7.164062-16 16-16 8.835937 0 16 7.164062 16 16v8h16v-8c-.027344-3.398438-.59375-6.773438-1.679688-9.992188 30.019531 12.324219 49.636719 41.542969 49.679688 73.992188zm-112-141.054688c2.335937-1.714843 5.109375-2.738281 8-2.945312 1.367187 0 4 3.046875 5.984375 5.265625 4.082031 6.105469 10.699218 10.046875 18.015625 10.734375 7.3125-.6875 13.929687-4.628906 18.015625-10.734375 1.984375-2.21875 4.617187-5.265625 5.984375-5.265625 2.890625.207031 5.664062 1.230469 8 2.945312 1.710937 1.015626 3.476562 1.9375 5.289062 2.757813l-15.824219 42.296875h-42.929687l-15.855469-42.296875c1.824219-.820313 3.597656-1.742187 5.320313-2.757813zm0 0" fill="url(#b)"/><path d="m224.292969 261.65625c4.417969 0 8 3.582031 8 8h16c-.042969-10.132812-6.445313-19.148438-16-22.527344v-9.472656h-16v9.472656c-11.011719 3.878906-17.621094 15.132813-15.644531 26.640625 1.980468 11.507813 11.96875 19.910157 23.644531 19.886719 4.417969 0 8 3.582031 8 8s-3.582031 8-8 8-8-3.582031-8-8h-16c.042969 10.132812 6.445312 19.148438 16 22.527344v9.472656h16v-9.472656c11.011719-3.878906 17.621093-15.132813 15.640625-26.640625-1.976563-11.507813-11.964844-19.910157-23.640625-19.886719-4.417969 0-8-3.582031-8-8s3.582031-8 8-8zm0 0" fill="url(#c)"/><path d="m256.292969 277.65625h16v16h-16zm0 0" fill="url(#d)"/><path d="m176.292969 277.65625h16v16h-16zm0 0" fill="url(#e)"/><path d="m242.78125 22.457031 11.199219-11.199219-11.34375-11.257812-24 24c-3.125 3.125-3.125 8.1875 0 11.3125l24 24 11.3125-11.3125-9.335938-9.335938c103.113281 10.082032 183.085938 94.515626 187.5625 198.023438 4.476563 103.507812-67.90625 194.53125-169.761719 213.480469l2.910157 15.734375c110.300781-20.546875 188.386719-119.527344 182.6875-231.582032-5.695313-112.054687-93.414063-202.609374-205.230469-211.863281zm0 0" fill="url(#f)"/><path d="m205.949219 432-11.3125 11.3125 9.335937 9.335938c-104.527344-10.222657-185.035156-96.757813-187.691406-201.75-2.65625-104.988282 73.367188-195.488282 177.242188-210.988282l-2.34375-15.855468c-112.523438 16.761718-194.613282 115.210937-190.875 228.917968 3.738281 113.703125 92.117187 206.546875 205.5 215.882813l-11.199219 11.199219 11.3125 11.3125 24-24c3.121093-3.125 3.121093-8.1875 0-11.3125zm0 0" fill="url(#g)"/><path d="m336.292969 237.65625h48v16h-48zm0 0" fill="url(#h)"/><path d="m330.628906 192.003906 40-40 11.316406 11.316406-40 39.996094zm0 0" fill="url(#i)"/><path d="m330.628906 299.3125 11.3125-11.316406 40 40-11.3125 11.316406zm0 0" fill="url(#j)"/><path d="m64.292969 237.65625h48v16h-48zm0 0" fill="url(#k)"/><path d="m66.632812 163.308594 11.316407-11.3125 40 40-11.316407 11.3125zm0 0" fill="url(#l)"/><path d="m66.632812 328 40-40 11.3125 11.3125-40 40zm0 0" fill="url(#m)"/></svg>